ISO-10303-21;
HEADER;
FILE_DESCRIPTION(('remus STEP export'), '2;1');
FILE_NAME('output.stp', '2024-01-01T00:00:00', (''), (''), 'remus', 'remus', '');
FILE_SCHEMA(('CONFIG_CONTROL_DESIGN'));
ENDSEC;
DATA;
#1 = ( LENGTH_UNIT() NAMED_UNIT(*) SI_UNIT(.MILLI.,.METRE.) );
#2 = ( NAMED_UNIT(*) PLANE_ANGLE_UNIT() SI_UNIT($,.RADIAN.) );
#3 = ( NAMED_UNIT(*) SI_UNIT($,.STERADIAN.) SOLID_ANGLE_UNIT() );
#4 = UNCERTAINTY_MEASURE_WITH_UNIT(LENGTH_MEASURE(1.E-07), #1, 'distance_accuracy_value', 'confusion accuracy');
#5 = ( GEOMETRIC_REPRESENTATION_CONTEXT(3) GLOBAL_UNCERTAINTY_ASSIGNED_CONTEXT((#4)) GLOBAL_UNIT_ASSIGNED_CONTEXT((#1,#2,#3)) REPRESENTATION_CONTEXT('Context3D','3D Context with UNIT and UNCERTAINTY') );
#6 = APPLICATION_CONTEXT('configuration controlled 3D design of mechanical parts and assemblies');
#7 = MECHANICAL_CONTEXT('', #6, 'mechanical');
#8 = APPLICATION_PROTOCOL_DEFINITION('international standard', 'config_control_design', 1994, #6);
#9 = PRODUCT('remus_solid', 'remus_solid', '', (#7));
#10 = PRODUCT_DEFINITION_FORMATION('', '', #9);
#11 = PRODUCT_DEFINITION_CONTEXT('part definition', #6, 'design');
#12 = PRODUCT_DEFINITION('design', '', #10, #11);
#13 = CARTESIAN_POINT('', (0., 0., 0.));
#14 = DIRECTION('', (0., -1.00000000000000000E0, 0.));
#15 = DIRECTION('', (0., 0., 1.00000000000000000E0));
#16 = AXIS2_PLACEMENT_3D('', #13, #14, #15);
#17 = PLANE('', #16);
#18 = CARTESIAN_POINT('', (0., 0., 0.));
#19 = DIRECTION('', (0., 0., -1.00000000000000000E0));
#20 = DIRECTION('', (0., -1.00000000000000000E0, 0.));
#21 = AXIS2_PLACEMENT_3D('', #18, #19, #20);
#22 = PLANE('', #21);
#23 = CARTESIAN_POINT('', (3.00000000000000000E1, 4.00000000000000000E0, 0.));
#24 = DIRECTION('', (0., 0., 1.00000000000000000E0));
#25 = DIRECTION('', (0., 1.00000000000000000E0, 0.));
#26 = AXIS2_PLACEMENT_3D('', #23, #24, #25);
#27 = CYLINDRICAL_SURFACE('', #26, 1.20000000000000000E1);
#28 = CARTESIAN_POINT('', (0., 0., 2.40000000000000000E1));
#29 = DIRECTION('', (0., 0., 1.00000000000000000E0));
#30 = DIRECTION('', (0., 1.00000000000000000E0, 0.));
#31 = AXIS2_PLACEMENT_3D('', #28, #29, #30);
#32 = PLANE('', #31);
#33 = CARTESIAN_POINT('', (3.00000000000000000E1, 4.00000000000000000E0, 0.));
#34 = DIRECTION('', (0., 0., 1.00000000000000000E0));
#35 = DIRECTION('', (0., 1.00000000000000000E0, 0.));
#36 = AXIS2_PLACEMENT_3D('', #33, #34, #35);
#37 = CYLINDRICAL_SURFACE('', #36, 6.00000000000000000E0);
#38 = CARTESIAN_POINT('', (0., 0., 3.00000000000000000E1));
#39 = DIRECTION('', (0., 0., 1.00000000000000000E0));
#40 = DIRECTION('', (0., 1.00000000000000000E0, 0.));
#41 = AXIS2_PLACEMENT_3D('', #38, #39, #40);
#42 = PLANE('', #41);
#43 = CARTESIAN_POINT('', (0., 0., 0.));
#44 = DIRECTION('', (-1.00000000000000000E0, 0., 0.));
#45 = DIRECTION('', (0., 0., -1.00000000000000000E0));
#46 = AXIS2_PLACEMENT_3D('', #43, #44, #45);
#47 = PLANE('', #46);
#48 = CARTESIAN_POINT('', (0., 0., 0.));
#49 = DIRECTION('', (0., -1.00000000000000000E0, 0.));
#50 = DIRECTION('', (0., 0., 1.00000000000000000E0));
#51 = AXIS2_PLACEMENT_3D('', #48, #49, #50);
#52 = PLANE('', #51);
#53 = CARTESIAN_POINT('', (0., 8.00000000000000000E0, 0.));
#54 = DIRECTION('', (0., 1.00000000000000000E0, 0.));
#55 = DIRECTION('', (0., 0., -1.00000000000000000E0));
#56 = AXIS2_PLACEMENT_3D('', #53, #54, #55);
#57 = PLANE('', #56);
#58 = CARTESIAN_POINT('', (3.00000000000000000E1, 4.00000000000000000E0, 0.));
#59 = DIRECTION('', (0., 0., 1.00000000000000000E0));
#60 = DIRECTION('', (0., 1.00000000000000000E0, 0.));
#61 = AXIS2_PLACEMENT_3D('', #58, #59, #60);
#62 = CYLINDRICAL_SURFACE('', #61, 1.20000000000000000E1);
#63 = CARTESIAN_POINT('', (0., 8.00000000000000000E0, 0.));
#64 = DIRECTION('', (0., 1.00000000000000000E0, 0.));
#65 = DIRECTION('', (0., 0., -1.00000000000000000E0));
#66 = AXIS2_PLACEMENT_3D('', #63, #64, #65);
#67 = PLANE('', #66);
#68 = CARTESIAN_POINT('', (6.00000000000000000E1, 0., 0.));
#69 = DIRECTION('', (1.00000000000000000E0, 0., 0.));
#70 = DIRECTION('', (0., 0., 1.00000000000000000E0));
#71 = AXIS2_PLACEMENT_3D('', #68, #69, #70);
#72 = PLANE('', #71);
#73 = CARTESIAN_POINT('', (0., 0., 3.00000000000000000E1));
#74 = DIRECTION('', (0., 0., 1.00000000000000000E0));
#75 = DIRECTION('', (0., 1.00000000000000000E0, 0.));
#76 = AXIS2_PLACEMENT_3D('', #73, #74, #75);
#77 = PLANE('', #76);
#78 = CARTESIAN_POINT('', (0., 0., 2.40000000000000000E1));
#79 = DIRECTION('', (0., 0., 1.00000000000000000E0));
#80 = DIRECTION('', (0., 1.00000000000000000E0, 0.));
#81 = AXIS2_PLACEMENT_3D('', #78, #79, #80);
#82 = PLANE('', #81);
#83 = CARTESIAN_POINT('', (0., 0., 0.));
#84 = VERTEX_POINT('', #83);
#85 = CARTESIAN_POINT('', (1.86862915010152406E1, 0., 0.));
#86 = VERTEX_POINT('', #85);
#87 = CARTESIAN_POINT('', (0., 0., 0.));
#88 = DIRECTION('', (1.00000000000000000E0, 0., 0.));
#89 = VECTOR('', #88, 1.86862915010152406E1);
#90 = LINE('', #87, #89);
#91 = EDGE_CURVE('', #84, #86, #90, .T.);
#92 = ORIENTED_EDGE('', *, *, #91, .T.);
#93 = CARTESIAN_POINT('', (1.86862915010152406E1, 2.22044604925031308E-15, 2.40000000000000000E1));
#94 = VERTEX_POINT('', #93);
#95 = CARTESIAN_POINT('', (1.86862915010152406E1, 0., 0.));
#96 = DIRECTION('', (0., 9.25185853854297035E-17, 1.00000000000000000E0));
#97 = VECTOR('', #96, 2.40000000000000000E1);
#98 = LINE('', #95, #97);
#99 = EDGE_CURVE('', #86, #94, #98, .T.);
#100 = ORIENTED_EDGE('', *, *, #99, .T.);
#101 = CARTESIAN_POINT('', (2.55278640450004204E1, 1.54907720819724440E-15, 2.40000000000000000E1));
#102 = VERTEX_POINT('', #101);
#103 = CARTESIAN_POINT('', (1.86862915010152406E1, 2.22044604925031308E-15, 2.40000000000000000E1));
#104 = DIRECTION('', (1.00000000000000000E0, -9.81307786677359202E-17, 0.));
#105 = VECTOR('', #104, 6.84157254398517978E0);
#106 = LINE('', #103, #105);
#107 = EDGE_CURVE('', #94, #102, #106, .T.);
#108 = ORIENTED_EDGE('', *, *, #107, .T.);
#109 = CARTESIAN_POINT('', (2.55278640450004204E1, 1.77635683940025046E-15, 3.00000000000000000E1));
#110 = VERTEX_POINT('', #109);
#111 = CARTESIAN_POINT('', (2.55278640450004204E1, 1.54907720819724440E-15, 2.40000000000000000E1));
#112 = DIRECTION('', (0., 3.78799385338343415E-17, 1.00000000000000000E0));
#113 = VECTOR('', #112, 6.00000000000000000E0);
#114 = LINE('', #111, #113);
#115 = EDGE_CURVE('', #102, #110, #114, .T.);
#116 = ORIENTED_EDGE('', *, *, #115, .T.);
#117 = CARTESIAN_POINT('', (0., 0., 3.00000000000000000E1));
#118 = VERTEX_POINT('', #117);
#119 = CARTESIAN_POINT('', (2.55278640450004204E1, 1.77635683940025046E-15, 3.00000000000000000E1));
#120 = DIRECTION('', (-1.00000000000000000E0, -6.95850164459077117E-17, 0.));
#121 = VECTOR('', #120, 2.55278640450004204E1);
#122 = LINE('', #119, #121);
#123 = EDGE_CURVE('', #110, #118, #122, .T.);
#124 = ORIENTED_EDGE('', *, *, #123, .T.);
#125 = CARTESIAN_POINT('', (0., 0., 0.));
#126 = DIRECTION('', (0., 0., 1.00000000000000000E0));
#127 = VECTOR('', #126, 3.00000000000000000E1);
#128 = LINE('', #125, #127);
#129 = EDGE_CURVE('', #84, #118, #128, .T.);
#130 = ORIENTED_EDGE('', *, *, #129, .F.);
#131 = EDGE_LOOP('', (#92, #100, #108, #116, #124, #130));
#132 = FACE_OUTER_BOUND('', #131, .T.);
#133 = ADVANCED_FACE('', (#132), #17, .T.);
#134 = CARTESIAN_POINT('', (4.13137084989847594E1, 0., 0.));
#135 = VERTEX_POINT('', #134);
#136 = CARTESIAN_POINT('', (6.00000000000000000E1, 0., 0.));
#137 = VERTEX_POINT('', #136);
#138 = CARTESIAN_POINT('', (4.13137084989847594E1, 0., 0.));
#139 = DIRECTION('', (1.00000000000000000E0, 0., 0.));
#140 = VECTOR('', #139, 1.86862915010152406E1);
#141 = LINE('', #138, #140);
#142 = EDGE_CURVE('', #135, #137, #141, .T.);
#143 = ORIENTED_EDGE('', *, *, #142, .F.);
#144 = CARTESIAN_POINT('', (3.00000000000000000E1, -8.00000000000000000E0, 0.));
#145 = VERTEX_POINT('', #144);
#146 = CARTESIAN_POINT('', (3.00000000000000000E1, 4.00000000000000000E0, 0.));
#147 = DIRECTION('', (0., 0., 1.00000000000000000E0));
#148 = DIRECTION('', (0., 1.00000000000000000E0, 0.));
#149 = AXIS2_PLACEMENT_3D('', #146, #147, #148);
#150 = CIRCLE('', #149, 1.20000000000000000E1);
#151 = TRIMMED_CURVE('', #150, (PARAMETER_VALUE(3.14159265358979312E0)), (PARAMETER_VALUE(4.37255207093056786E0)), .T., .PARAMETER.);
#152 = EDGE_CURVE('', #145, #135, #151, .T.);
#153 = ORIENTED_EDGE('', *, *, #152, .F.);
#154 = CARTESIAN_POINT('', (3.00000000000000000E1, 4.00000000000000000E0, 0.));
#155 = DIRECTION('', (0., 0., 1.00000000000000000E0));
#156 = DIRECTION('', (0., 1.00000000000000000E0, 0.));
#157 = AXIS2_PLACEMENT_3D('', #154, #155, #156);
#158 = CIRCLE('', #157, 1.20000000000000000E1);
#159 = TRIMMED_CURVE('', #158, (PARAMETER_VALUE(1.91063323624901793E0)), (PARAMETER_VALUE(3.14159265358979312E0)), .T., .PARAMETER.);
#160 = EDGE_CURVE('', #86, #145, #159, .T.);
#161 = ORIENTED_EDGE('', *, *, #160, .F.);
#162 = ORIENTED_EDGE('', *, *, #91, .F.);
#163 = CARTESIAN_POINT('', (0., 8.00000000000000000E0, 0.));
#164 = VERTEX_POINT('', #163);
#165 = CARTESIAN_POINT('', (0., 8.00000000000000000E0, 0.));
#166 = DIRECTION('', (0., -1.00000000000000000E0, 0.));
#167 = VECTOR('', #166, 8.00000000000000000E0);
#168 = LINE('', #165, #167);
#169 = EDGE_CURVE('', #164, #84, #168, .T.);
#170 = ORIENTED_EDGE('', *, *, #169, .F.);
#171 = CARTESIAN_POINT('', (1.86862915010152406E1, 8.00000000000000000E0, 0.));
#172 = VERTEX_POINT('', #171);
#173 = CARTESIAN_POINT('', (1.86862915010152406E1, 8.00000000000000000E0, 0.));
#174 = DIRECTION('', (-1.00000000000000000E0, 0., 0.));
#175 = VECTOR('', #174, 1.86862915010152406E1);
#176 = LINE('', #173, #175);
#177 = EDGE_CURVE('', #172, #164, #176, .T.);
#178 = ORIENTED_EDGE('', *, *, #177, .F.);
#179 = CARTESIAN_POINT('', (2.99999999999999964E1, 1.60000000000000000E1, 0.));
#180 = VERTEX_POINT('', #179);
#181 = CARTESIAN_POINT('', (3.00000000000000000E1, 4.00000000000000000E0, 0.));
#182 = DIRECTION('', (0., 0., 1.00000000000000000E0));
#183 = DIRECTION('', (0., 1.00000000000000000E0, 0.));
#184 = AXIS2_PLACEMENT_3D('', #181, #182, #183);
#185 = CIRCLE('', #184, 1.20000000000000000E1);
#186 = TRIMMED_CURVE('', #185, (PARAMETER_VALUE(0.00000000000000000E0)), (PARAMETER_VALUE(1.23095941734077452E0)), .T., .PARAMETER.);
#187 = EDGE_CURVE('', #180, #172, #186, .T.);
#188 = ORIENTED_EDGE('', *, *, #187, .F.);
#189 = CARTESIAN_POINT('', (4.13137084989847594E1, 8.00000000000000000E0, 0.));
#190 = VERTEX_POINT('', #189);
#191 = CARTESIAN_POINT('', (3.00000000000000000E1, 4.00000000000000000E0, 0.));
#192 = DIRECTION('', (0., 0., 1.00000000000000000E0));
#193 = DIRECTION('', (0., 1.00000000000000000E0, 0.));
#194 = AXIS2_PLACEMENT_3D('', #191, #192, #193);
#195 = CIRCLE('', #194, 1.20000000000000000E1);
#196 = TRIMMED_CURVE('', #195, (PARAMETER_VALUE(-1.23095941734077452E0)), (PARAMETER_VALUE(0.00000000000000000E0)), .T., .PARAMETER.);
#197 = EDGE_CURVE('', #190, #180, #196, .T.);
#198 = ORIENTED_EDGE('', *, *, #197, .F.);
#199 = CARTESIAN_POINT('', (6.00000000000000000E1, 8.00000000000000000E0, 0.));
#200 = VERTEX_POINT('', #199);
#201 = CARTESIAN_POINT('', (6.00000000000000000E1, 8.00000000000000000E0, 0.));
#202 = DIRECTION('', (-1.00000000000000000E0, 0., 0.));
#203 = VECTOR('', #202, 1.86862915010152406E1);
#204 = LINE('', #201, #203);
#205 = EDGE_CURVE('', #200, #190, #204, .T.);
#206 = ORIENTED_EDGE('', *, *, #205, .F.);
#207 = CARTESIAN_POINT('', (6.00000000000000000E1, 0., 0.));
#208 = DIRECTION('', (0., 1.00000000000000000E0, 0.));
#209 = VECTOR('', #208, 8.00000000000000000E0);
#210 = LINE('', #207, #209);
#211 = EDGE_CURVE('', #137, #200, #210, .T.);
#212 = ORIENTED_EDGE('', *, *, #211, .F.);
#213 = EDGE_LOOP('', (#143, #153, #161, #162, #170, #178, #188, #198, #206, #212));
#214 = FACE_OUTER_BOUND('', #213, .T.);
#215 = CARTESIAN_POINT('', (3.60000000000000000E1, 4.00000000000000000E0, 0.));
#216 = VERTEX_POINT('', #215);
#217 = CARTESIAN_POINT('', (3.00000000000000000E1, 4.00000000000000000E0, 0.));
#218 = DIRECTION('', (0., 0., -1.00000000000000000E0));
#219 = DIRECTION('', (1.00000000000000000E0, -1.48029736616687531E-16, 0.));
#220 = AXIS2_PLACEMENT_3D('', #217, #218, #219);
#221 = CIRCLE('', #220, 6.00000000000000000E0);
#222 = TRIMMED_CURVE('', #221, (PARAMETER_VALUE(0.00000000000000000E0)), (PARAMETER_VALUE(6.28318530717958623E0)), .T., .PARAMETER.);
#223 = EDGE_CURVE('', #216, #216, #222, .T.);
#224 = ORIENTED_EDGE('', *, *, #223, .F.);
#225 = EDGE_LOOP('', (#224));
#226 = FACE_BOUND('', #225, .T.);
#227 = ADVANCED_FACE('', (#214, #226), #22, .T.);
#228 = ORIENTED_EDGE('', *, *, #160, .T.);
#229 = ORIENTED_EDGE('', *, *, #152, .T.);
#230 = CARTESIAN_POINT('', (4.13137084989847665E1, 0., 2.40000000000000000E1));
#231 = VERTEX_POINT('', #230);
#232 = CARTESIAN_POINT('', (4.13137084989847665E1, 0., 2.40000000000000000E1));
#233 = DIRECTION('', (-2.96059473233375061E-16, 0., -1.00000000000000000E0));
#234 = VECTOR('', #233, 2.40000000000000000E1);
#235 = LINE('', #232, #234);
#236 = EDGE_CURVE('', #231, #135, #235, .T.);
#237 = ORIENTED_EDGE('', *, *, #236, .F.);
#238 = CARTESIAN_POINT('', (3.00000000000000000E1, -8.00000000000000000E0, 2.40000000000000000E1));
#239 = VERTEX_POINT('', #238);
#240 = CARTESIAN_POINT('', (3.00000000000000000E1, 4.00000000000000000E0, 2.40000000000000000E1));
#241 = DIRECTION('', (0., 0., 1.00000000000000000E0));
#242 = DIRECTION('', (0., 1.00000000000000000E0, 0.));
#243 = AXIS2_PLACEMENT_3D('', #240, #241, #242);
#244 = CIRCLE('', #243, 1.20000000000000000E1);
#245 = TRIMMED_CURVE('', #244, (PARAMETER_VALUE(3.14159265358979312E0)), (PARAMETER_VALUE(4.37255207093056786E0)), .T., .PARAMETER.);
#246 = EDGE_CURVE('', #239, #231, #245, .T.);
#247 = ORIENTED_EDGE('', *, *, #246, .F.);
#248 = CARTESIAN_POINT('', (3.00000000000000000E1, 4.00000000000000000E0, 2.40000000000000000E1));
#249 = DIRECTION('', (0., 0., 1.00000000000000000E0));
#250 = DIRECTION('', (0., 1.00000000000000000E0, 0.));
#251 = AXIS2_PLACEMENT_3D('', #248, #249, #250);
#252 = CIRCLE('', #251, 1.20000000000000000E1);
#253 = TRIMMED_CURVE('', #252, (PARAMETER_VALUE(1.91063323624901860E0)), (PARAMETER_VALUE(3.14159265358979312E0)), .T., .PARAMETER.);
#254 = EDGE_CURVE('', #94, #239, #253, .T.);
#255 = ORIENTED_EDGE('', *, *, #254, .F.);
#256 = ORIENTED_EDGE('', *, *, #99, .F.);
#257 = EDGE_LOOP('', (#228, #229, #237, #247, #255, #256));
#258 = FACE_OUTER_BOUND('', #257, .T.);
#259 = ADVANCED_FACE('', (#258), #27, .T.);
#260 = ORIENTED_EDGE('', *, *, #254, .T.);
#261 = ORIENTED_EDGE('', *, *, #246, .T.);
#262 = CARTESIAN_POINT('', (3.44721359549995796E1, 6.71368841053069269E-16, 2.40000000000000000E1));
#263 = VERTEX_POINT('', #262);
#264 = CARTESIAN_POINT('', (3.44721359549995796E1, 6.71368841053069269E-16, 2.40000000000000000E1));
#265 = DIRECTION('', (1.00000000000000000E0, -9.81307786677359202E-17, 0.));
#266 = VECTOR('', #265, 6.84157254398518688E0);
#267 = LINE('', #264, #266);
#268 = EDGE_CURVE('', #263, #231, #267, .T.);
#269 = ORIENTED_EDGE('', *, *, #268, .F.);
#270 = CARTESIAN_POINT('', (3.00000000000000000E1, 4.00000000000000000E0, 2.40000000000000000E1));
#271 = DIRECTION('', (0., 0., 1.00000000000000000E0));
#272 = DIRECTION('', (0., 1.00000000000000000E0, 0.));
#273 = AXIS2_PLACEMENT_3D('', #270, #271, #272);
#274 = CIRCLE('', #273, 6.00000000000000000E0);
#275 = TRIMMED_CURVE('', #274, (PARAMETER_VALUE(2.30052398302186223E0)), (PARAMETER_VALUE(3.98266132415772400E0)), .T., .PARAMETER.);
#276 = EDGE_CURVE('', #102, #263, #275, .T.);
#277 = ORIENTED_EDGE('', *, *, #276, .F.);
#278 = ORIENTED_EDGE('', *, *, #107, .F.);
#279 = EDGE_LOOP('', (#260, #261, #269, #277, #278));
#280 = FACE_OUTER_BOUND('', #279, .T.);
#281 = ADVANCED_FACE('', (#280), #32, .T.);
#282 = CARTESIAN_POINT('', (3.60000000000000000E1, 4.00000000000000000E0, 3.00000000000000000E1));
#283 = VERTEX_POINT('', #282);
#284 = CARTESIAN_POINT('', (3.60000000000000000E1, 4.00000000000000000E0, 0.));
#285 = DIRECTION('', (0., 0., 1.00000000000000000E0));
#286 = VECTOR('', #285, 3.00000000000000000E1);
#287 = LINE('', #284, #286);
#288 = EDGE_CURVE('', #216, #283, #287, .T.);
#289 = ORIENTED_EDGE('', *, *, #288, .T.);
#290 = CARTESIAN_POINT('', (3.44721359549995796E1, 8.00000000000000000E0, 3.00000000000000000E1));
#291 = VERTEX_POINT('', #290);
#292 = CARTESIAN_POINT('', (3.00000000000000000E1, 4.00000000000000000E0, 3.00000000000000000E1));
#293 = DIRECTION('', (0., 0., 1.00000000000000000E0));
#294 = DIRECTION('', (0., 1.00000000000000000E0, 0.));
#295 = AXIS2_PLACEMENT_3D('', #292, #293, #294);
#296 = CIRCLE('', #295, 6.00000000000000000E0);
#297 = TRIMMED_CURVE('', #296, (PARAMETER_VALUE(4.71238898038468967E0)), (PARAMETER_VALUE(5.44211663661165623E0)), .T., .PARAMETER.);
#298 = EDGE_CURVE('', #283, #291, #297, .T.);
#299 = ORIENTED_EDGE('', *, *, #298, .T.);
#300 = CARTESIAN_POINT('', (3.44721359549995796E1, 7.99999999999999911E0, 2.40000000000000000E1));
#301 = VERTEX_POINT('', #300);
#302 = CARTESIAN_POINT('', (3.44721359549995796E1, 7.99999999999999911E0, 2.40000000000000000E1));
#303 = DIRECTION('', (0., 1.48029736616687531E-16, 1.00000000000000000E0));
#304 = VECTOR('', #303, 6.00000000000000000E0);
#305 = LINE('', #302, #304);
#306 = EDGE_CURVE('', #301, #291, #305, .T.);
#307 = ORIENTED_EDGE('', *, *, #306, .F.);
#308 = CARTESIAN_POINT('', (2.55278640450004204E1, 8.00000000000000000E0, 2.40000000000000000E1));
#309 = VERTEX_POINT('', #308);
#310 = CARTESIAN_POINT('', (3.00000000000000000E1, 4.00000000000000000E0, 2.40000000000000000E1));
#311 = DIRECTION('', (0., 0., 1.00000000000000000E0));
#312 = DIRECTION('', (0., 1.00000000000000000E0, 0.));
#313 = AXIS2_PLACEMENT_3D('', #310, #311, #312);
#314 = CIRCLE('', #313, 6.00000000000000000E0);
#315 = TRIMMED_CURVE('', #314, (PARAMETER_VALUE(5.44211663661165623E0)), (PARAMETER_VALUE(7.12425397774751712E0)), .T., .PARAMETER.);
#316 = EDGE_CURVE('', #301, #309, #315, .T.);
#317 = ORIENTED_EDGE('', *, *, #316, .T.);
#318 = CARTESIAN_POINT('', (2.55278640450004204E1, 8.00000000000000000E0, 3.00000000000000000E1));
#319 = VERTEX_POINT('', #318);
#320 = CARTESIAN_POINT('', (2.55278640450004204E1, 8.00000000000000000E0, 3.00000000000000000E1));
#321 = DIRECTION('', (0., 0., -1.00000000000000000E0));
#322 = VECTOR('', #321, 6.00000000000000000E0);
#323 = LINE('', #320, #322);
#324 = EDGE_CURVE('', #319, #309, #323, .T.);
#325 = ORIENTED_EDGE('', *, *, #324, .F.);
#326 = CARTESIAN_POINT('', (3.00000000000000000E1, 4.00000000000000000E0, 3.00000000000000000E1));
#327 = DIRECTION('', (0., 0., 1.00000000000000000E0));
#328 = DIRECTION('', (0., 1.00000000000000000E0, 0.));
#329 = AXIS2_PLACEMENT_3D('', #326, #327, #328);
#330 = CIRCLE('', #329, 6.00000000000000000E0);
#331 = TRIMMED_CURVE('', #330, (PARAMETER_VALUE(8.41068670567930221E-1)), (PARAMETER_VALUE(2.30052398302186312E0)), .T., .PARAMETER.);
#332 = EDGE_CURVE('', #319, #110, #331, .T.);
#333 = ORIENTED_EDGE('', *, *, #332, .T.);
#334 = ORIENTED_EDGE('', *, *, #115, .F.);
#335 = ORIENTED_EDGE('', *, *, #276, .T.);
#336 = CARTESIAN_POINT('', (3.44721359549995796E1, 0., 3.00000000000000000E1));
#337 = VERTEX_POINT('', #336);
#338 = CARTESIAN_POINT('', (3.44721359549995796E1, 0., 3.00000000000000000E1));
#339 = DIRECTION('', (0., 1.11894806842178212E-16, -1.00000000000000000E0));
#340 = VECTOR('', #339, 6.00000000000000000E0);
#341 = LINE('', #338, #340);
#342 = EDGE_CURVE('', #337, #263, #341, .T.);
#343 = ORIENTED_EDGE('', *, *, #342, .F.);
#344 = CARTESIAN_POINT('', (3.00000000000000000E1, 4.00000000000000000E0, 3.00000000000000000E1));
#345 = DIRECTION('', (0., 0., 1.00000000000000000E0));
#346 = DIRECTION('', (0., 1.00000000000000000E0, 0.));
#347 = AXIS2_PLACEMENT_3D('', #344, #345, #346);
#348 = CIRCLE('', #347, 6.00000000000000000E0);
#349 = TRIMMED_CURVE('', #348, (PARAMETER_VALUE(3.98266132415772312E0)), (PARAMETER_VALUE(4.71238898038468967E0)), .T., .PARAMETER.);
#350 = EDGE_CURVE('', #337, #283, #349, .T.);
#351 = ORIENTED_EDGE('', *, *, #350, .T.);
#352 = ORIENTED_EDGE('', *, *, #288, .F.);
#353 = ORIENTED_EDGE('', *, *, #223, .T.);
#354 = EDGE_LOOP('', (#289, #299, #307, #317, #325, #333, #334, #335, #343, #351, #352, #353));
#355 = FACE_OUTER_BOUND('', #354, .T.);
#356 = ADVANCED_FACE('', (#355), #37, .F.);
#357 = ORIENTED_EDGE('', *, *, #123, .F.);
#358 = ORIENTED_EDGE('', *, *, #332, .F.);
#359 = CARTESIAN_POINT('', (0., 8.00000000000000000E0, 3.00000000000000000E1));
#360 = VERTEX_POINT('', #359);
#361 = CARTESIAN_POINT('', (0., 8.00000000000000000E0, 3.00000000000000000E1));
#362 = DIRECTION('', (1.00000000000000000E0, 0., 0.));
#363 = VECTOR('', #362, 2.55278640450004204E1);
#364 = LINE('', #361, #363);
#365 = EDGE_CURVE('', #360, #319, #364, .T.);
#366 = ORIENTED_EDGE('', *, *, #365, .F.);
#367 = CARTESIAN_POINT('', (0., 8.00000000000000000E0, 3.00000000000000000E1));
#368 = DIRECTION('', (0., -1.00000000000000000E0, 0.));
#369 = VECTOR('', #368, 8.00000000000000000E0);
#370 = LINE('', #367, #369);
#371 = EDGE_CURVE('', #360, #118, #370, .T.);
#372 = ORIENTED_EDGE('', *, *, #371, .T.);
#373 = EDGE_LOOP('', (#357, #358, #366, #372));
#374 = FACE_OUTER_BOUND('', #373, .T.);
#375 = ADVANCED_FACE('', (#374), #42, .T.);
#376 = ORIENTED_EDGE('', *, *, #169, .T.);
#377 = ORIENTED_EDGE('', *, *, #129, .T.);
#378 = ORIENTED_EDGE('', *, *, #371, .F.);
#379 = CARTESIAN_POINT('', (0., 8.00000000000000000E0, 0.));
#380 = DIRECTION('', (0., 0., 1.00000000000000000E0));
#381 = VECTOR('', #380, 3.00000000000000000E1);
#382 = LINE('', #379, #381);
#383 = EDGE_CURVE('', #164, #360, #382, .T.);
#384 = ORIENTED_EDGE('', *, *, #383, .F.);
#385 = EDGE_LOOP('', (#376, #377, #378, #384));
#386 = FACE_OUTER_BOUND('', #385, .T.);
#387 = ADVANCED_FACE('', (#386), #47, .T.);
#388 = ORIENTED_EDGE('', *, *, #268, .T.);
#389 = ORIENTED_EDGE('', *, *, #236, .T.);
#390 = ORIENTED_EDGE('', *, *, #142, .T.);
#391 = CARTESIAN_POINT('', (6.00000000000000000E1, 0., 3.00000000000000000E1));
#392 = VERTEX_POINT('', #391);
#393 = CARTESIAN_POINT('', (6.00000000000000000E1, 0., 0.));
#394 = DIRECTION('', (0., 0., 1.00000000000000000E0));
#395 = VECTOR('', #394, 3.00000000000000000E1);
#396 = LINE('', #393, #395);
#397 = EDGE_CURVE('', #137, #392, #396, .T.);
#398 = ORIENTED_EDGE('', *, *, #397, .T.);
#399 = CARTESIAN_POINT('', (6.00000000000000000E1, 0., 3.00000000000000000E1));
#400 = DIRECTION('', (-1.00000000000000000E0, 0., 0.));
#401 = VECTOR('', #400, 2.55278640450004204E1);
#402 = LINE('', #399, #401);
#403 = EDGE_CURVE('', #392, #337, #402, .T.);
#404 = ORIENTED_EDGE('', *, *, #403, .T.);
#405 = ORIENTED_EDGE('', *, *, #342, .T.);
#406 = EDGE_LOOP('', (#388, #389, #390, #398, #404, #405));
#407 = FACE_OUTER_BOUND('', #406, .T.);
#408 = ADVANCED_FACE('', (#407), #52, .T.);
#409 = CARTESIAN_POINT('', (1.86862915010152335E1, 8.00000000000000000E0, 2.40000000000000000E1));
#410 = VERTEX_POINT('', #409);
#411 = CARTESIAN_POINT('', (2.55278640450004204E1, 8.00000000000000000E0, 2.40000000000000000E1));
#412 = DIRECTION('', (-1.00000000000000000E0, 0., 0.));
#413 = VECTOR('', #412, 6.84157254398518688E0);
#414 = LINE('', #411, #413);
#415 = EDGE_CURVE('', #309, #410, #414, .T.);
#416 = ORIENTED_EDGE('', *, *, #415, .T.);
#417 = CARTESIAN_POINT('', (1.86862915010152335E1, 8.00000000000000000E0, 2.40000000000000000E1));
#418 = DIRECTION('', (2.96059473233375061E-16, 0., -1.00000000000000000E0));
#419 = VECTOR('', #418, 2.40000000000000000E1);
#420 = LINE('', #417, #419);
#421 = EDGE_CURVE('', #410, #172, #420, .T.);
#422 = ORIENTED_EDGE('', *, *, #421, .T.);
#423 = ORIENTED_EDGE('', *, *, #177, .T.);
#424 = ORIENTED_EDGE('', *, *, #383, .T.);
#425 = ORIENTED_EDGE('', *, *, #365, .T.);
#426 = ORIENTED_EDGE('', *, *, #324, .T.);
#427 = EDGE_LOOP('', (#416, #422, #423, #424, #425, #426));
#428 = FACE_OUTER_BOUND('', #427, .T.);
#429 = ADVANCED_FACE('', (#428), #57, .T.);
#430 = ORIENTED_EDGE('', *, *, #197, .T.);
#431 = ORIENTED_EDGE('', *, *, #187, .T.);
#432 = ORIENTED_EDGE('', *, *, #421, .F.);
#433 = CARTESIAN_POINT('', (3.00000000000000000E1, 1.60000000000000000E1, 2.40000000000000000E1));
#434 = VERTEX_POINT('', #433);
#435 = CARTESIAN_POINT('', (3.00000000000000000E1, 4.00000000000000000E0, 2.40000000000000000E1));
#436 = DIRECTION('', (0., 0., 1.00000000000000000E0));
#437 = DIRECTION('', (0., 1.00000000000000000E0, 0.));
#438 = AXIS2_PLACEMENT_3D('', #435, #436, #437);
#439 = CIRCLE('', #438, 1.20000000000000000E1);
#440 = TRIMMED_CURVE('', #439, (PARAMETER_VALUE(0.00000000000000000E0)), (PARAMETER_VALUE(1.23095941734077496E0)), .T., .PARAMETER.);
#441 = EDGE_CURVE('', #434, #410, #440, .T.);
#442 = ORIENTED_EDGE('', *, *, #441, .F.);
#443 = CARTESIAN_POINT('', (4.13137084989847594E1, 7.99999999999999911E0, 2.40000000000000000E1));
#444 = VERTEX_POINT('', #443);
#445 = CARTESIAN_POINT('', (3.00000000000000000E1, 4.00000000000000000E0, 2.40000000000000000E1));
#446 = DIRECTION('', (0., 0., 1.00000000000000000E0));
#447 = DIRECTION('', (0., 1.00000000000000000E0, 0.));
#448 = AXIS2_PLACEMENT_3D('', #445, #446, #447);
#449 = CIRCLE('', #448, 1.20000000000000000E1);
#450 = TRIMMED_CURVE('', #449, (PARAMETER_VALUE(-1.23095941734077474E0)), (PARAMETER_VALUE(0.00000000000000000E0)), .T., .PARAMETER.);
#451 = EDGE_CURVE('', #444, #434, #450, .T.);
#452 = ORIENTED_EDGE('', *, *, #451, .F.);
#453 = CARTESIAN_POINT('', (4.13137084989847594E1, 8.00000000000000000E0, 0.));
#454 = DIRECTION('', (0., -3.70074341541718826E-17, 1.00000000000000000E0));
#455 = VECTOR('', #454, 2.40000000000000000E1);
#456 = LINE('', #453, #455);
#457 = EDGE_CURVE('', #190, #444, #456, .T.);
#458 = ORIENTED_EDGE('', *, *, #457, .F.);
#459 = EDGE_LOOP('', (#430, #431, #432, #442, #452, #458));
#460 = FACE_OUTER_BOUND('', #459, .T.);
#461 = ADVANCED_FACE('', (#460), #62, .T.);
#462 = ORIENTED_EDGE('', *, *, #205, .T.);
#463 = ORIENTED_EDGE('', *, *, #457, .T.);
#464 = CARTESIAN_POINT('', (4.13137084989847594E1, 7.99999999999999911E0, 2.40000000000000000E1));
#465 = DIRECTION('', (-1.00000000000000000E0, 0., 0.));
#466 = VECTOR('', #465, 6.84157254398517978E0);
#467 = LINE('', #464, #466);
#468 = EDGE_CURVE('', #444, #301, #467, .T.);
#469 = ORIENTED_EDGE('', *, *, #468, .T.);
#470 = ORIENTED_EDGE('', *, *, #306, .T.);
#471 = CARTESIAN_POINT('', (6.00000000000000000E1, 8.00000000000000000E0, 3.00000000000000000E1));
#472 = VERTEX_POINT('', #471);
#473 = CARTESIAN_POINT('', (3.44721359549995796E1, 8.00000000000000000E0, 3.00000000000000000E1));
#474 = DIRECTION('', (1.00000000000000000E0, 0., 0.));
#475 = VECTOR('', #474, 2.55278640450004204E1);
#476 = LINE('', #473, #475);
#477 = EDGE_CURVE('', #291, #472, #476, .T.);
#478 = ORIENTED_EDGE('', *, *, #477, .T.);
#479 = CARTESIAN_POINT('', (6.00000000000000000E1, 8.00000000000000000E0, 0.));
#480 = DIRECTION('', (0., 0., 1.00000000000000000E0));
#481 = VECTOR('', #480, 3.00000000000000000E1);
#482 = LINE('', #479, #481);
#483 = EDGE_CURVE('', #200, #472, #482, .T.);
#484 = ORIENTED_EDGE('', *, *, #483, .F.);
#485 = EDGE_LOOP('', (#462, #463, #469, #470, #478, #484));
#486 = FACE_OUTER_BOUND('', #485, .T.);
#487 = ADVANCED_FACE('', (#486), #67, .T.);
#488 = ORIENTED_EDGE('', *, *, #211, .T.);
#489 = ORIENTED_EDGE('', *, *, #483, .T.);
#490 = CARTESIAN_POINT('', (6.00000000000000000E1, 0., 3.00000000000000000E1));
#491 = DIRECTION('', (0., 1.00000000000000000E0, 0.));
#492 = VECTOR('', #491, 8.00000000000000000E0);
#493 = LINE('', #490, #492);
#494 = EDGE_CURVE('', #392, #472, #493, .T.);
#495 = ORIENTED_EDGE('', *, *, #494, .F.);
#496 = ORIENTED_EDGE('', *, *, #397, .F.);
#497 = EDGE_LOOP('', (#488, #489, #495, #496));
#498 = FACE_OUTER_BOUND('', #497, .T.);
#499 = ADVANCED_FACE('', (#498), #72, .T.);
#500 = ORIENTED_EDGE('', *, *, #403, .F.);
#501 = ORIENTED_EDGE('', *, *, #494, .T.);
#502 = ORIENTED_EDGE('', *, *, #477, .F.);
#503 = ORIENTED_EDGE('', *, *, #298, .F.);
#504 = ORIENTED_EDGE('', *, *, #350, .F.);
#505 = EDGE_LOOP('', (#500, #501, #502, #503, #504));
#506 = FACE_OUTER_BOUND('', #505, .T.);
#507 = ADVANCED_FACE('', (#506), #77, .T.);
#508 = ORIENTED_EDGE('', *, *, #451, .T.);
#509 = ORIENTED_EDGE('', *, *, #441, .T.);
#510 = ORIENTED_EDGE('', *, *, #415, .F.);
#511 = ORIENTED_EDGE('', *, *, #316, .F.);
#512 = ORIENTED_EDGE('', *, *, #468, .F.);
#513 = EDGE_LOOP('', (#508, #509, #510, #511, #512));
#514 = FACE_OUTER_BOUND('', #513, .T.);
#515 = ADVANCED_FACE('', (#514), #82, .T.);
#516 = CLOSED_SHELL('', (#133, #227, #259, #281, #356, #375, #387, #408, #429, #461, #487, #499, #507, #515));
#517 = MANIFOLD_SOLID_BREP('', #516);
#518 = ADVANCED_BREP_SHAPE_REPRESENTATION('remus export', (#517), #5);
#519 = PRODUCT_DEFINITION_SHAPE('','',#12);
#520 = SHAPE_DEFINITION_REPRESENTATION(#519, #518);
ENDSEC;
END-ISO-10303-21;
